HIERARCHY
ROOT Hips
{
    OFFSET 0.000000 0.000000 0.000000
    CHANNELS 6 Xposition Yposition Zposition Zrotation Xrotation Yrotation
    JOINT Spine
    {
        OFFSET -0.000000 7.871866 0.000000
        CHANNELS 3 Zrotation Xrotation Yrotation
        JOINT Spine1
        {
            OFFSET -0.000000 20.477478 0.000000
            CHANNELS 3 Zrotation Xrotation Yrotation
            JOINT Neck
            {
                OFFSET -0.000000 20.393381 1.853944
                CHANNELS 3 Zrotation Xrotation Yrotation
                JOINT Head
                {
                    OFFSET -0.000000 13.439772 -1.919967
                    CHANNELS 3 Zrotation Xrotation Yrotation
                    End Site
                    {
                        OFFSET -0.000000 23.999592 0.000000
                    }
                }
            }
            JOINT LeftShoulder
            {
                OFFSET 3.872530 18.410604 -0.225466
                CHANNELS 3 Zrotation Xrotation Yrotation
                JOINT LeftArm
                {
                    OFFSET 11.402711 0.000000 0.000000
                    CHANNELS 3 Zrotation Xrotation Yrotation
                    JOINT LeftForeArm
                    {
                        OFFSET 30.885973 0.000000 0.000000
                        CHANNELS 3 Zrotation Xrotation Yrotation
                        JOINT LeftHand
                        {
                            OFFSET 25.505432 0.000000 0.000000
                            CHANNELS 3 Zrotation Xrotation Yrotation
                            End Site
                            {
                                OFFSET 14.399755 0.000000 0.000000
                            }
                        }
                    }
                }
            }
            JOINT RightShoulder
            {
                OFFSET -3.749425 18.410604 -0.225466
                CHANNELS 3 Zrotation Xrotation Yrotation
                JOINT RightArm
                {
                    OFFSET -11.402711 0.000000 0.000000
                    CHANNELS 3 Zrotation Xrotation Yrotation
                    JOINT RightForeArm
                    {
                        OFFSET -30.885973 0.000000 0.000000
                        CHANNELS 3 Zrotation Xrotation Yrotation
                        JOINT RightHand
                        {
                            OFFSET -25.505432 0.000000 0.000000
                            CHANNELS 3 Zrotation Xrotation Yrotation
                            End Site
                            {
                                OFFSET -14.399755 0.000000 0.000000
                            }
                        }
                    }
                }
            }
        }
    }
    JOINT LeftUpLeg
    {
        OFFSET 9.599837 0.000000 0.000000
        CHANNELS 3 Zrotation Xrotation Yrotation
        JOINT LeftLeg
        {
            OFFSET -0.000000 -39.304852 0.000000
            CHANNELS 3 Zrotation Xrotation Yrotation
            JOINT LeftFoot
            {
                OFFSET -0.000000 -46.901295 0.000000
                CHANNELS 3 Zrotation Xrotation Yrotation
                JOINT LeftToeBase
                {
                    OFFSET -0.000000 -6.239893 14.399755
                    CHANNELS 3 Zrotation Xrotation Yrotation
                    End Site
                    {
                        OFFSET -0.000000 0.000000 3.839935
                    }
                }
            }
        }
    }
    JOINT RightUpLeg
    {
        OFFSET -9.599837 0.000000 0.000000
        CHANNELS 3 Zrotation Xrotation Yrotation
        JOINT RightLeg
        {
            OFFSET -0.000000 -39.304852 0.000000
            CHANNELS 3 Zrotation Xrotation Yrotation
            JOINT RightFoot
            {
                OFFSET -0.000000 -46.901295 0.000000
                CHANNELS 3 Zrotation Xrotation Yrotation
                JOINT RightToeBase
                {
                    OFFSET -0.000000 -6.239893 14.399755
                    CHANNELS 3 Zrotation Xrotation Yrotation
                    End Site
                    {
                        OFFSET -0.000000 0.000000 3.839935
                    }
                }
            }
        }
    }
}
MOTION
Frames:    7
Frame Time:    0.008333
4.841403    92.094681    -10.439316    0.364173    1.327792    8.090732    -1.706903    -4.710631    -0.216922    0.387078    -0.319574    -0.145478    0.024087    22.372559    -1.929031    2.588414    -1.455728    -1.604415    14.333445    0.134567    -9.546962    -21.909706    1.585122    -2.612317    0.352567    -0.186052    -1.981785    4.151420    -0.166795    0.370051    -11.381212    2.482912    -7.331586    18.595329    7.158164    7.734131    -0.132436    -0.586227    2.501138    3.468368    -0.624390    -1.357123    -0.768151    -2.424273    0.693661    -1.098417    8.855759    -2.242196    0.496999    -6.237370    4.545230    0.000000    0.000000    0.000000    -3.284967    0.964268    0.562440    0.689630    4.601747    4.001779    2.250902    -6.862605    -18.045826    0.000000    0.000000    0.000000    
4.847957    92.094124    -10.446853    0.362289    1.330896    8.119188    -1.707082    -4.697799    -0.218065    0.384210    -0.313525    -0.147385    0.017474    22.377733    -1.928861    2.614881    -1.461519    -1.600405    14.336055    0.130595    -9.570846    -21.916037    1.585461    -2.596610    0.351516    -0.170989    -1.977891    4.152740    -0.151611    0.367197    -11.369539    2.483184    -7.327846    18.591564    7.164149    7.726886    -0.132487    -0.590004    2.512323    3.463452    -0.628079    -1.353403    -0.774768    -2.440257    0.702722    -1.090158    8.865680    -2.247784    0.507189    -6.237181    4.512047    0.000000    0.000000    0.000000    -3.292617    0.949898    0.551957    0.699303    4.628319    4.075687    2.248139    -6.891005    -18.129650    0.000000    0.000000    0.000000    
4.855501    92.093399    -10.452987    0.359454    1.331467    8.149981    -1.708920    -4.683102    -0.221189    0.382484    -0.310189    -0.150118    0.040748    22.390476    -1.934116    2.602047    -1.475297    -1.606155    14.339215    0.136811    -9.592635    -21.918480    1.575820    -2.587449    0.343265    -0.142968    -1.972844    4.155212    -0.124385    0.356737    -11.343552    2.502592    -7.325633    18.578434    7.191902    7.739852    -0.152079    -0.606283    2.499297    3.472272    -0.643879    -1.346779    -0.778830    -2.449731    0.698483    -1.085057    8.871401    -2.295067    0.500788    -6.238452    4.532350    0.000000    0.000000    0.000000    -3.296968    0.942869    0.552136    0.705788    4.644920    4.074955    2.247891    -6.893548    -18.158096    0.000000    0.000000    0.000000    
4.863560    92.092537    -10.458271    0.356693    1.327520    8.181644    -1.717077    -4.660888    -0.225336    0.397542    -0.308818    -0.154559    0.028163    22.389570    -1.939171    2.631952    -1.468486    -1.607692    14.328323    0.136172    -9.608337    -21.918343    1.559953    -2.577222    0.332247    -0.119796    -1.973409    4.171395    -0.101420    0.347072    -11.332392    2.520472    -7.321212    18.569853    7.203079    7.742015    -0.162204    -0.621328    2.498459    3.471346    -0.657877    -1.322933    -0.782326    -2.457455    0.690081    -1.081206    8.882287    -2.293655    0.503289    -6.241227    4.504750    0.000000    0.000000    0.000000    -3.300289    0.939521    0.527108    0.709110    4.663226    4.101845    2.246028    -6.904179    -18.184916    0.000000    0.000000    0.000000    
4.871223    92.092606    -10.464297    0.354654    1.333230    8.210138    -1.713297    -4.649539    -0.225953    0.347171    -0.285533    -0.155868    0.126531    22.355759    -1.956343    2.597640    -1.460072    -1.625324    14.409777    0.204712    -9.471162    -21.939634    1.505656    -2.785100    0.324532    -0.104903    -1.939552    4.177855    -0.086645    0.358206    -11.256890    2.507184    -7.314803    18.545019    7.212010    7.716260    -0.162220    -0.628984    2.516421    3.466849    -0.665333    -1.317002    -0.790386    -2.471130    0.695661    -1.070752    8.882918    -2.298671    0.504719    -6.236346    4.466021    0.000000    0.000000    0.000000    -3.306120    0.926232    0.536889    0.732813    4.730340    3.942524    2.227934    -6.950284    -18.124065    0.000000    0.000000    0.000000    
4.879580    92.092796    -10.468597    0.351499    1.334028    8.240921    -1.725101    -4.631825    -0.229875    0.358455    -0.282806    -0.159300    0.108963    22.378521    -1.963094    2.650303    -1.485360    -1.624593    14.407798    0.109069    -9.581247    -21.975075    1.581480    -2.616265    0.339062    -0.125361    -1.974220    4.179625    -0.106150    0.362352    -11.252770    2.508111    -7.305169    18.554586    7.210875    7.706255    -0.160261    -0.627080    2.528172    3.447169    -0.663351    -1.320664    -0.793220    -2.479591    0.683907    -1.069376    8.887638    -2.309320    0.499892    -6.236831    4.462855    0.000000    0.000000    0.000000    -3.310249    0.921164    0.529160    0.737074    4.745438    3.920224    2.234947    -6.950533    -18.120693    0.000000    0.000000    0.000000    
4.887554    92.093376    -10.472822    0.349178    1.336581    8.272841    -1.735370    -4.612594    -0.235407    0.365451    -0.284789    -0.164966    0.123286    22.378626    -1.973583    2.649550    -1.472244    -1.635102    14.411325    0.094042    -9.579928    -21.990639    1.611601    -2.616447    0.342504    -0.147172    -1.971531    4.179019    -0.128353    0.351537    -11.244613    2.515597    -7.302983    18.556257    7.183384    7.704678    -0.143627    -0.609072    2.549517    3.446202    -0.646229    -1.339361    -0.796312    -2.491055    0.677946    -1.069309    8.893519    -2.344391    0.509486    -6.231066    4.471163    0.000000    0.000000    0.000000    -3.317957    0.917943    0.545726    0.735096    4.696652    3.985417    2.253539    -6.905324    -18.175369    0.000000    0.000000    0.000000    
